<?xml version="1.0" encoding="UTF-8" standalone="no"?>
<svg
   xmlns:dc="http://purl.org/dc/elements/1.1/"
   xmlns:cc="http://creativecommons.org/ns#"
   xmlns:rdf="http://www.w3.org/1999/02/22-rdf-syntax-ns#"
   xmlns:svg="http://www.w3.org/2000/svg"
   xmlns="http://www.w3.org/2000/svg"
   xmlns:sodipodi="http://sodipodi.sourceforge.net/DTD/sodipodi-0.dtd"
   xmlns:inkscape="http://www.inkscape.org/namespaces/inkscape"
   version="1.1"
   id="svg2"
   xml:space="preserve"
   width="415.73334"
   height="415.73334"
   viewBox="0 0 415.73334 415.73334"
   sodipodi:docname="gas measure.eps"><metadata
     id="metadata8"><rdf:RDF><cc:Work
         rdf:about=""><dc:format>image/svg+xml</dc:format><dc:type
           rdf:resource="http://purl.org/dc/dcmitype/StillImage" /></cc:Work></rdf:RDF></metadata><defs
     id="defs6" /><sodipodi:namedview
     pagecolor="#ffffff"
     bordercolor="#666666"
     borderopacity="1"
     objecttolerance="10"
     gridtolerance="10"
     guidetolerance="10"
     inkscape:pageopacity="0"
     inkscape:pageshadow="2"
     inkscape:window-width="640"
     inkscape:window-height="480"
     id="namedview4" /><g
     id="g10"
     inkscape:groupmode="layer"
     inkscape:label="ink_ext_XXXXXX"
     transform="matrix(1.3333333,0,0,-1.3333333,0,415.73333)"><g
       id="g12"
       transform="scale(0.1)"><path
         d="M 0,0 H 3118 V 3118 H 0 V 0"
         style="fill:#231f20;fill-opacity:1;fill-rule:evenodd;stroke:none"
         id="path14" /><path
         d="M 71.4023,89.6992 H 3044.2 V 3036.2 H 71.4023 Z"
         style="fill:none;stroke:#ffffff;stroke-width:60;stroke-linecap:butt;stroke-linejoin:miter;stroke-miterlimit:10;stroke-dasharray:none;stroke-opacity:1"
         id="path16" /><path
         d="m 1379.7,2859 372.3,-2.7 63.8,-65.4 -63.8,-66.3 h -371.1 l -68.1,66 66.9,68.4"
         style="fill:#ffffff;fill-opacity:1;fill-rule:evenodd;stroke:none"
         id="path18" /><path
         d="m 1759.4,2350.9 2.7,372.3 65.3,63.8 66.3,-63.8 v -371.1 l -65.9,-68.1 -68.4,66.9"
         style="fill:#ffffff;fill-opacity:1;fill-rule:evenodd;stroke:none"
         id="path20" /><path
         d="m 1762.4,1839.2 2.7,372.3 65.3,63.8 66.3,-63.8 v -371.1 l -65.9,-68.1 -68.4,66.9"
         style="fill:#ffffff;fill-opacity:1;fill-rule:evenodd;stroke:none"
         id="path22" /><path
         d="m 1232.8,2348.1 2.7,372.2 65.2,63.8 66.2,-63.8 v -370.9 l -65.8,-68.2 -68.3,66.9"
         style="fill:#ffffff;fill-opacity:1;fill-rule:evenodd;stroke:none"
         id="path24" /><path
         d="m 1238.7,1836.4 2.8,372.2 65.2,63.7 66.1,-63.7 v -370.9 l -65.7,-68.2 -68.4,66.9"
         style="fill:#ffffff;fill-opacity:1;fill-rule:evenodd;stroke:none"
         id="path26" /><path
         d="m 1379.7,2347.3 372.3,-2.7 63.8,-65.4 -63.8,-66.3 h -371.1 l -68.1,65.9 66.9,68.5"
         style="fill:#ffffff;fill-opacity:1;fill-rule:evenodd;stroke:none"
         id="path28" /><path
         d="m 1382.6,1832.6 372.4,-2.7 63.7,-65.4 -63.7,-66.3 h -371.1 l -68.1,65.9 66.8,68.5"
         style="fill:#ffffff;fill-opacity:1;fill-rule:evenodd;stroke:none"
         id="path30" /><path
         d="m 561.297,2859 372.301,-2.7 63.804,-65.4 -63.804,-66.3 H 562.5 l -68.102,66 66.899,68.4"
         style="fill:#ffffff;fill-opacity:1;fill-rule:evenodd;stroke:none"
         id="path32" /><path
         d="m 941,2350.9 2.699,372.3 65.301,63.8 66.3,-63.8 v -371.1 l -65.9,-68.1 -68.4,66.9"
         style="fill:#ffffff;fill-opacity:1;fill-rule:evenodd;stroke:none"
         id="path34" /><path
         d="m 944,1839.2 2.699,372.3 65.301,63.8 66.3,-63.8 v -371.1 l -65.9,-68.1 -68.4,66.9"
         style="fill:#ffffff;fill-opacity:1;fill-rule:evenodd;stroke:none"
         id="path36" /><path
         d="m 414.398,2348.1 2.7,372.2 65.203,63.8 66.199,-63.8 v -370.9 l -65.801,-68.2 -68.301,66.9"
         style="fill:#ffffff;fill-opacity:1;fill-rule:evenodd;stroke:none"
         id="path38" /><path
         d="m 420.398,1836.4 2.704,372.2 65.199,63.7 66.203,-63.7 v -370.9 l -65.805,-68.2 -68.301,66.9"
         style="fill:#ffffff;fill-opacity:1;fill-rule:evenodd;stroke:none"
         id="path40" /><path
         d="m 561.297,2347.3 372.301,-2.7 63.804,-65.4 -63.804,-66.3 H 562.5 l -68.102,65.9 66.899,68.5"
         style="fill:#ffffff;fill-opacity:1;fill-rule:evenodd;stroke:none"
         id="path42" /><path
         d="m 564.301,1832.6 372.301,-2.7 63.798,-65.4 -63.798,-66.3 H 565.496 l -68.094,65.9 66.899,68.5"
         style="fill:#ffffff;fill-opacity:1;fill-rule:evenodd;stroke:none"
         id="path44" /><path
         d="m 2017.8,2710.5 c 0,90.6 75.7,164 169,164 93.3,0 169,-73.4 169,-164 0,-90.7 -75.7,-164.1 -169,-164.1 -93.3,0 -169,73.4 -169,164.1 z"
         style="fill:none;stroke:#ffffff;stroke-width:10;stroke-linecap:butt;stroke-linejoin:miter;stroke-miterlimit:10;stroke-dasharray:none;stroke-opacity:1"
         id="path46" /><path
         d="m 2434.1,1912.1 c 0,90.6 75.7,164.1 169,164.1 93.3,0 169,-73.5 169,-164.1 0,-90.6 -75.7,-164.1 -169,-164.1 -93.3,0 -169,73.5 -169,164.1"
         style="fill:#ffffff;fill-opacity:1;fill-rule:evenodd;stroke:none"
         id="path48" /><path
         d="m 2434.1,1912.1 c 0,90.6 75.7,164.1 169,164.1 93.3,0 169,-73.5 169,-164.1 0,-90.6 -75.7,-164.1 -169,-164.1 -93.3,0 -169,73.5 -169,164.1 z"
         style="fill:none;stroke:#ffffff;stroke-width:10;stroke-linecap:butt;stroke-linejoin:miter;stroke-miterlimit:10;stroke-dasharray:none;stroke-opacity:1"
         id="path50" /><path
         d="m 2017.8,2710.5 c 0,90.6 75.7,164 169,164 93.3,0 169,-73.4 169,-164 0,-90.7 -75.7,-164.1 -169,-164.1 -93.3,0 -169,73.4 -169,164.1"
         style="fill:#ffffff;fill-opacity:1;fill-rule:evenodd;stroke:none"
         id="path52" /><path
         d="M 2753.1,2834.7 2008.6,1791.5"
         style="fill:none;stroke:#ffffff;stroke-width:60;stroke-linecap:butt;stroke-linejoin:miter;stroke-miterlimit:10;stroke-dasharray:none;stroke-opacity:1"
         id="path54" /><path
         d="m 1364.1,1470.8 372.4,-2.7 63.7,-65.3 -63.7,-66.3 h -371.1 l -68.2,65.9 66.9,68.4"
         style="fill:#ffffff;fill-opacity:1;fill-rule:evenodd;stroke:none"
         id="path56" /><path
         d="m 1743.8,962.699 2.7,372.401 65.4,63.8 66.3,-63.8 V 964 l -65.9,-68.199 -68.5,66.898"
         style="fill:#ffffff;fill-opacity:1;fill-rule:evenodd;stroke:none"
         id="path58" /><path
         d="m 1746.8,451 2.7,372.398 65.4,63.801 66.3,-63.801 V 452.301 L 1815.3,384.102 1746.8,451"
         style="fill:#ffffff;fill-opacity:1;fill-rule:evenodd;stroke:none"
         id="path60" /><path
         d="m 1217.2,959.898 2.7,372.302 65.2,63.7 66.2,-63.7 V 961.199 l -65.8,-68.097 -68.3,66.796"
         style="fill:#ffffff;fill-opacity:1;fill-rule:evenodd;stroke:none"
         id="path62" /><path
         d="m 1223.2,448.199 2.7,372.301 65.2,63.699 66.2,-63.699 v -371 l -65.8,-68.102 -68.3,66.801"
         style="fill:#ffffff;fill-opacity:1;fill-rule:evenodd;stroke:none"
         id="path64" /><path
         d="m 1364.1,959.102 372.4,-2.704 63.7,-65.296 -63.7,-66.301 h -371.1 l -68.2,65.898 66.9,68.403"
         style="fill:#ffffff;fill-opacity:1;fill-rule:evenodd;stroke:none"
         id="path66" /><path
         d="m 1367.1,444.398 372.3,-2.699 63.8,-65.301 -63.8,-66.296 h -371 l -68.2,65.898 66.9,68.398"
         style="fill:#ffffff;fill-opacity:1;fill-rule:evenodd;stroke:none"
         id="path68" /><path
         d="M 2742.3,1446.6 1998.3,403.398"
         style="fill:none;stroke:#ffffff;stroke-width:60;stroke-linecap:butt;stroke-linejoin:miter;stroke-miterlimit:10;stroke-dasharray:none;stroke-opacity:1"
         id="path70" /><path
         d="m 2007.5,1322.3 c 0,90.6 75.6,164.1 168.8,164.1 93.3,0 168.9,-73.5 168.9,-164.1 0,-90.6 -75.6,-164.1 -168.9,-164.1 -93.2,0 -168.8,73.5 -168.8,164.1"
         style="fill:#ffffff;fill-opacity:1;fill-rule:evenodd;stroke:none"
         id="path72" /><path
         d="m 2007.5,1322.3 c 0,90.6 75.6,164.1 168.8,164.1 93.3,0 168.9,-73.5 168.9,-164.1 0,-90.6 -75.6,-164.1 -168.9,-164.1 -93.2,0 -168.8,73.5 -168.8,164.1 z"
         style="fill:none;stroke:#ffffff;stroke-width:10;stroke-linecap:butt;stroke-linejoin:miter;stroke-miterlimit:10;stroke-dasharray:none;stroke-opacity:1"
         id="path74" /><path
         d="m 2423.5,524 c 0,90.602 75.6,164.102 168.9,164.102 93.2,0 168.8,-73.5 168.8,-164.102 0,-90.602 -75.6,-164.102 -168.8,-164.102 -93.3,0 -168.9,73.5 -168.9,164.102"
         style="fill:#ffffff;fill-opacity:1;fill-rule:evenodd;stroke:none"
         id="path76" /><path
         d="m 2423.5,524 c 0,90.602 75.6,164.102 168.9,164.102 93.2,0 168.8,-73.5 168.8,-164.102 0,-90.602 -75.6,-164.102 -168.8,-164.102 -93.3,0 -168.9,73.5 -168.9,164.102 z"
         style="fill:none;stroke:#ffffff;stroke-width:10;stroke-linecap:butt;stroke-linejoin:miter;stroke-miterlimit:10;stroke-dasharray:none;stroke-opacity:1"
         id="path78" /><path
         d="m 923.902,967.5 2.7,372.3 65.296,63.7 66.302,-63.7 V 968.801 L 992.301,900.602 923.902,967.5"
         style="fill:#ffffff;fill-opacity:1;fill-rule:evenodd;stroke:none"
         id="path80" /><path
         d="m 926.801,455.898 2.797,372.301 65.304,63.699 66.298,-63.699 v -371 L 995.301,389 l -68.5,66.898"
         style="fill:#ffffff;fill-opacity:1;fill-rule:evenodd;stroke:none"
         id="path82" /><path
         d="M 403.5,944.602 775.602,941.898 839.301,876.699 775.602,810.5 H 404.801 l -68.102,65.801 66.801,68.301"
         style="fill:#ffffff;fill-opacity:1;fill-rule:evenodd;stroke:none"
         id="path84" /></g></g></svg>
